<svg width="28" height="33" viewBox="0 0 28 33" fill="none" xmlns="http://www.w3.org/2000/svg">
<g clip-path="url(#clip0_121_4149)">
<path d="M25.3647 2.00555C23.9263 3.736 23.3835 5.66488 23.1981 7.87985L21.9541 22.5033C21.9134 22.9786 21.5244 23.3478 21.054 23.3478H5.68359" stroke="white" stroke-miterlimit="10" stroke-linecap="round"/>
<path d="M18.5615 20.1083L4.24049 17.6488C3.87862 17.5888 3.58912 17.3073 3.5077 16.9428L1.65312 8.50742C1.52647 7.9306 1.95619 7.38147 2.53518 7.38147H23.2341" stroke="white" stroke-miterlimit="10" stroke-linecap="round"/>
<path d="M8.45691 31.9999C9.8559 31.9999 10.99 30.8429 10.99 29.4157C10.99 27.9886 9.8559 26.8316 8.45691 26.8316C7.05793 26.8316 5.92383 27.9886 5.92383 29.4157C5.92383 30.8429 7.05793 31.9999 8.45691 31.9999Z" stroke="white" stroke-miterlimit="10"/>
<path d="M17.8104 31.9999C19.2094 31.9999 20.3435 30.8429 20.3435 29.4157C20.3435 27.9886 19.2094 26.8316 17.8104 26.8316C16.4114 26.8316 15.2773 27.9886 15.2773 29.4157C15.2773 30.8429 16.4114 31.9999 17.8104 31.9999Z" stroke="white" stroke-miterlimit="10"/>
</g>
<defs>
<clipPath id="clip0_121_4149">
<rect width="28" height="33" fill="white"/>
</clipPath>
</defs>
</svg>
