<svg width="55" height="35" viewBox="0 0 55 35" fill="none" xmlns="http://www.w3.org/2000/svg">
<path d="M52.0834 33.9931C51.7525 33.9935 51.4265 33.9135 51.1334 33.7599C50.8404 33.6063 50.5891 33.3837 50.4012 33.1113L45.9569 26.6909L36.3953 33.6035C36.1655 33.7716 35.9033 33.8899 35.6252 33.9509C35.3472 34.0119 35.0594 34.0142 34.7804 33.9577C34.5025 33.8994 34.2396 33.784 34.0086 33.6187C33.7775 33.4535 33.5833 33.2421 33.4383 32.9979L29.7624 26.7617L19.8891 33.6354C19.6615 33.7948 19.4035 33.9057 19.1312 33.9612C18.8589 34.0166 18.578 34.0154 18.3062 33.9577C18.0337 33.9019 17.7755 33.7907 17.5477 33.6311C17.3199 33.4715 17.1273 33.2669 16.9817 33.0298L13.1111 26.7369L3.19534 33.6354C2.75167 33.9423 2.20446 34.061 1.67351 33.9654C1.14255 33.8698 0.671085 33.5678 0.362282 33.1255C0.0553594 32.6818 -0.0633009 32.1346 0.0322714 31.6036C0.127844 31.0727 0.429865 30.6012 0.872234 30.2924L12.5586 22.1473C12.7865 21.9883 13.0443 21.8773 13.3165 21.8213C13.5887 21.7652 13.8694 21.7653 14.1416 21.8215C14.414 21.8787 14.6719 21.9908 14.8996 22.1509C15.1273 22.3111 15.3201 22.5159 15.466 22.7529L19.3402 29.0458L29.256 22.1473C29.4863 21.9865 29.7473 21.8748 30.0227 21.8194C30.2981 21.7639 30.582 21.7659 30.8566 21.8251C31.1314 21.8858 31.3907 22.0023 31.6185 22.1674C31.8463 22.3325 32.0378 22.5426 32.1811 22.7848L35.8393 28.9892L45.2876 22.165C45.5081 22.007 45.7579 21.8943 46.0223 21.8335C46.2867 21.7728 46.5606 21.7651 46.828 21.8109C47.0956 21.8573 47.3512 21.9568 47.5799 22.1033C47.8085 22.2499 48.0056 22.4406 48.1596 22.6644L53.7938 30.8094C54.1001 31.254 54.2176 31.8017 54.1206 32.3328C54.0237 32.8638 53.7203 33.3348 53.2768 33.6425C52.9242 33.8786 52.5077 34.001 52.0834 33.9931Z" fill="#888888"/>
<path d="M52.0835 12.2069C51.753 12.2072 51.4274 12.1274 51.1345 11.9745C50.8415 11.8215 50.59 11.6 50.4013 11.3287L45.957 4.90824L36.3954 11.8209C36.1656 11.989 35.9034 12.1073 35.6253 12.1683C35.3472 12.2292 35.0595 12.2316 34.7805 12.175C34.5021 12.1168 34.2389 12.001 34.0078 11.8351C33.7766 11.6692 33.5827 11.4569 33.4384 11.2118L29.7625 4.97553L19.8892 11.8528C19.6612 12.0114 19.4032 12.1219 19.131 12.1773C18.8588 12.2327 18.5782 12.232 18.3063 12.175C18.0338 12.1192 17.7756 12.0081 17.5478 11.8485C17.32 11.6889 17.1274 11.4843 16.9818 11.2472L13.1112 4.95428L3.19544 11.8528C2.75147 12.1588 2.20454 12.2769 1.67386 12.1814C1.14318 12.0858 0.671779 11.7844 0.362376 11.3428C0.0563799 10.8989 -0.0617302 10.3519 0.0337918 9.82127C0.129314 9.29059 0.430725 8.81917 0.872328 8.50976L12.5587 0.36471C12.7871 0.206789 13.0451 0.0968103 13.3172 0.0414209C13.5892 -0.0139684 13.8697 -0.013609 14.1417 0.0424584C14.4142 0.0982645 14.6723 0.209396 14.9001 0.368989C15.1279 0.528583 15.3206 0.733241 15.4661 0.970285L19.3403 7.26323L29.2561 0.36471C29.4869 0.205023 29.7481 0.0943584 30.0234 0.0395404C30.2987 -0.0152775 30.5823 -0.0130721 30.8567 0.0460032C31.132 0.105317 31.3919 0.221274 31.62 0.386497C31.848 0.551721 32.0391 0.762581 32.1812 1.00569L35.8394 7.20656L45.2877 0.385957C45.5079 0.22723 45.7576 0.114146 46.0221 0.0533305C46.2867 -0.00748542 46.5607 -0.0148064 46.8281 0.031824C47.0955 0.0776563 47.351 0.176458 47.5797 0.32241C47.8083 0.468363 48.0055 0.658533 48.1597 0.881751L53.7939 9.0268C54.0983 9.47193 54.2147 10.0192 54.1179 10.5496C54.0211 11.0801 53.7189 11.551 53.2769 11.8599C52.9248 12.0967 52.5077 12.218 52.0835 12.2069Z" fill="#888888"/>
</svg>
