<svg width="46" height="45" viewBox="0 0 46 45" fill="none" xmlns="http://www.w3.org/2000/svg">
<path d="M43.9705 3.01929C42.9451 1.65771 40.9218 0 37.2988 0C29.8342 0 25.3089 8.10816 23.0018 14.0242C20.6914 8.10816 16.1661 0 8.70149 0C5.08196 0 3.07567 1.6441 2.0298 3.01929C-1.60339 7.80522 0.693419 16.3729 0.966849 17.3363C1.10868 17.8379 1.44459 18.2631 1.90084 18.5183C2.35708 18.7736 2.89638 18.8382 3.40037 18.6978C3.9041 18.5566 4.33096 18.222 4.58728 17.7677C4.8436 17.3133 4.90843 16.7761 4.76752 16.2742C4.17623 14.1808 3.09617 8.13879 5.18449 5.3816C5.92958 4.40127 7.08142 3.92475 8.70833 3.92475C15.5885 3.92475 19.9053 15.961 21.0434 20.7912V43.036C21.0434 43.5569 21.2512 44.0564 21.621 44.4248C21.9908 44.7931 22.4925 45 23.0155 45C23.538 44.9991 24.0387 44.7918 24.4078 44.4236C24.7769 44.0553 24.9842 43.5563 24.9842 43.036V20.73C26.1429 15.8521 30.4528 3.92475 37.2885 3.92475C38.9155 3.92475 40.0673 4.40127 40.8158 5.3816C42.9041 8.12517 41.8412 14.1672 41.2294 16.2742C41.1591 16.5227 41.1388 16.7827 41.1695 17.039C41.2002 17.2954 41.2814 17.5432 41.4083 17.7683C41.5353 17.9934 41.7056 18.1914 41.9095 18.3509C42.1134 18.5104 42.3468 18.6283 42.5965 18.6978C42.8461 18.7678 43.107 18.788 43.3644 18.7574C43.6219 18.7268 43.8707 18.646 44.0967 18.5195C44.3227 18.3931 44.5215 18.2235 44.6817 18.0205C44.8418 17.8174 44.9602 17.5849 45.03 17.3363C45.3069 16.3763 47.6037 7.80862 43.9705 3.01929Z" fill="#888888"/>
</svg>
