<svg width="48" height="36" viewBox="0 0 48 36" fill="none" xmlns="http://www.w3.org/2000/svg">
<path d="M9.0118 23C11.0176 22.9895 12.9639 22.31 14.5482 21.0669C16.1326 19.8239 17.2664 18.087 17.7735 16.1259C18.2806 14.1649 18.1326 12.0895 17.3525 10.2221C16.5724 8.35479 15.2038 6.80005 13.4595 5.79941C19.5662 3.5403 26.1483 3.312 33.1047 5.11793C37.3087 6.20235 41.3136 7.96012 44.9674 10.3244C45.3903 10.6123 45.9081 10.7209 46.4094 10.6269C46.9106 10.5329 47.3554 10.2438 47.6479 9.82182C47.9404 9.39986 48.0573 8.87874 47.9735 8.37055C47.8897 7.86237 47.6119 7.40774 47.1997 7.10447C43.2107 4.48575 38.8257 2.54187 34.2175 1.34936C24.0509 -1.34248 14.1811 0.0102416 5.66679 5.25423C3.71972 6.05651 2.10749 7.51509 1.10391 9.38225C0.100324 11.2494 -0.232733 13.41 0.161294 15.4972C0.555322 17.5843 1.65213 19.4693 3.26547 20.832C4.87881 22.1947 6.9092 22.9511 9.0118 22.9727V23ZM9.0118 8.5492C10.0417 8.54853 11.0486 8.85652 11.9052 9.4342C12.7619 10.0119 13.4297 10.8333 13.8243 11.7946C14.2188 12.7558 14.3224 13.8137 14.1219 14.8345C13.9214 15.8553 13.4258 16.793 12.6978 17.5291C11.9698 18.2652 11.0422 18.7666 10.0321 18.9699C9.0221 19.1732 7.97511 19.0692 7.02357 18.6711C6.07204 18.273 5.2587 17.5987 4.68647 16.7335C4.11424 15.8682 3.80881 14.8509 3.80881 13.8102C3.81059 12.416 4.35924 11.0795 5.33451 10.0933C6.30977 9.10716 7.63212 8.55191 9.0118 8.5492Z" fill="#888888"/>
<path d="M39.0063 13C37.0015 13.0105 35.0563 13.69 33.4727 14.933C31.8892 16.176 30.756 17.913 30.2492 19.8741C29.7423 21.8351 29.8902 23.9105 30.6699 25.7778C31.4496 27.6451 32.8174 29.1999 34.5609 30.2005C28.4574 32.4596 21.8787 32.6879 14.9258 30.882C10.7202 29.7915 6.71333 28.0306 3.05584 25.6653C2.63395 25.3666 2.11198 25.2496 1.60477 25.34C1.09755 25.4304 0.646626 25.7209 0.35121 26.1474C0.0557941 26.574 -0.0599241 27.1017 0.0295101 27.6145C0.118944 28.1273 0.406218 28.5832 0.828113 28.8819C4.81407 31.5002 9.19556 33.444 13.8002 34.6369C17.0875 35.5262 20.4743 35.9843 23.8772 35.9999C30.3929 36.0155 36.7844 34.1974 42.3361 30.7491C44.2819 29.9469 45.8931 28.4887 46.8962 26.6218C47.8994 24.755 48.2325 22.5948 47.8391 20.5078C47.4457 18.4209 46.35 16.5359 44.7381 15.1729C43.1262 13.81 41.0974 13.053 38.9962 13.0307L39.0063 13ZM39.0063 27.4508C37.977 27.4514 36.9705 27.1434 36.1143 26.5658C35.2582 25.9881 34.5907 25.1666 34.1963 24.2054C33.8019 23.2441 33.6984 22.1862 33.8988 21.1654C34.0992 20.1447 34.5946 19.2069 35.3222 18.4708C36.0498 17.7347 36.977 17.2333 37.9865 17.0301C38.996 16.8268 40.0424 16.9308 40.9935 17.3289C41.9445 17.727 42.7574 18.4013 43.3293 19.2665C43.9013 20.1318 44.2065 21.1491 44.2065 22.1897C44.2048 23.5839 43.6564 24.9205 42.6817 25.9066C41.7069 26.8928 40.3852 27.4481 39.0063 27.4508Z" fill="#888888"/>
</svg>
