<svg width="50" height="48" viewBox="0 0 50 48" fill="none" xmlns="http://www.w3.org/2000/svg">
<path d="M40.9111 21.5864C39.0012 21.5885 37.1428 22.2059 35.6114 23.3472C34.08 24.4884 32.9571 26.0928 32.4091 27.9224C30.9357 27.274 30.3757 25.8559 30.3058 23.0784C30.2468 20.8166 30.3058 13.917 30.3058 13.8286C30.3028 10.5684 29.0064 7.44246 26.701 5.13712C24.3957 2.83177 21.2698 1.53536 18.0096 1.53243C14.8035 1.52971 11.7244 2.78491 9.43394 5.02825C8.86529 3.5506 7.86291 2.27953 6.55852 1.3821C5.25413 0.484681 3.70878 0.00288664 2.1255 0C1.56178 0 1.02113 0.223916 0.622523 0.622523C0.223916 1.02113 0 1.56178 0 2.1255C-4.20387e-07 2.40445 0.054975 2.68065 0.161836 2.93832C0.268697 3.19599 0.425329 3.43005 0.622748 3.62713C0.820166 3.8242 1.05451 3.98041 1.31236 4.08682C1.57022 4.19324 1.84655 4.24779 2.1255 4.24731C3.07741 4.24829 3.99 4.62712 4.66276 5.30057C5.33552 5.97402 5.71341 6.887 5.71341 7.83891V38.0783C5.71341 38.6421 5.93733 39.1827 6.33594 39.5813C6.73454 39.9799 7.2752 40.2038 7.83891 40.2038C8.40199 40.2029 8.94165 39.9785 9.33946 39.58C9.73727 39.1815 9.96068 38.6414 9.96068 38.0783V13.8286C9.96263 11.6945 10.8113 9.64837 12.3203 8.13934C13.8294 6.6303 15.8755 5.78165 18.0096 5.77969C20.1408 5.78066 22.1847 6.62647 23.6934 8.13174C25.2021 9.637 26.0526 11.679 26.0584 13.8102C26.0584 14.0975 25.9995 20.8534 26.0584 23.1888C26.11 25.1117 26.25 30.5157 31.6393 32.1476C30.6299 36.8664 29.2964 41.9278 26.8099 43.0476C26.04 43.3939 22.511 43.5044 19.262 43.2871C18.9835 43.2681 18.7041 43.3042 18.4396 43.3934C18.1751 43.4826 17.9308 43.6231 17.7207 43.8068C17.5106 43.9906 17.3388 44.214 17.2152 44.4642C17.0915 44.7145 17.0185 44.9867 17.0003 45.2652C16.9812 45.5434 17.0172 45.8227 17.1062 46.0869C17.1951 46.3512 17.3353 46.5953 17.5187 46.8054C17.7021 47.0154 17.925 47.1873 18.1748 47.3111C18.4247 47.4349 18.6965 47.5083 18.9747 47.527C19.6857 47.5749 21.1039 47.6523 22.6584 47.6523C24.806 47.6523 27.2409 47.5049 28.5523 46.9155C31.9413 45.3905 33.6616 41.4821 34.8698 36.9474C36.5079 38.4773 38.666 39.3279 40.9074 39.3271C43.2601 39.3242 45.5155 38.3883 47.1791 36.7248C48.8426 35.0612 49.7785 32.8058 49.7814 30.4531C49.7766 28.1024 48.8403 25.8494 47.1778 24.1875C45.5152 22.5256 43.2618 21.5903 40.9111 21.5864ZM40.9111 35.0872C39.6859 35.0852 38.5113 34.5982 37.6443 33.7325C36.7772 32.8668 36.2883 31.693 36.2844 30.4678C36.2873 29.2423 36.7759 28.068 37.6432 27.2021C38.5104 26.3362 39.6856 25.8495 40.9111 25.8485C42.1369 25.8495 43.3122 26.3368 44.179 27.2036C45.0458 28.0704 45.5332 29.2457 45.5341 30.4715C45.5302 31.6957 45.0417 32.8686 44.1753 33.7336C43.309 34.5986 42.1353 35.0852 40.9111 35.0872Z" fill="#888888"/>
</svg>
