<svg width="35" height="45" viewBox="0 0 35 45" fill="none" xmlns="http://www.w3.org/2000/svg">
<path d="M34.3945 39.1616C34.0247 38.8201 33.5323 38.6362 33.0249 38.6503C32.5175 38.6644 32.0365 38.8752 31.6869 39.2367C31.1885 39.7491 29.4344 41.2209 27.9494 41.2339C27.6595 41.2363 27.3726 41.1764 27.1087 41.0586C26.8448 40.9408 26.6102 40.7679 26.4212 40.5519C24.8366 38.9724 28.1421 31.9102 30.3314 27.2336C32.7168 22.1361 34.9825 17.3225 34.9825 13.7294C34.9825 9.36941 33.7765 5.9591 31.368 3.58982C28.9594 1.22054 25.4578 0 21.149 0C16.9032 0 13.0462 1.83407 10.8303 4.89521C8.7041 7.83233 8.30875 11.6375 9.71735 15.5863C10.3552 17.3747 10.9034 19.0554 11.3784 20.5892C10.5129 20.3117 9.60798 20.1707 8.69746 20.1715C6.39126 20.1749 4.18057 21.0767 2.55015 22.6789C0.919727 24.2811 0.002636 26.4531 0 28.7185C0.00351468 30.9834 0.920998 33.1546 2.55132 34.7561C4.18165 36.3576 6.39184 37.2588 8.69746 37.2623C10.9933 37.2606 13.1955 36.368 14.8245 34.7788C16.4535 33.1896 17.3774 31.0325 17.3949 28.7773C17.3949 28.7773 17.3949 28.7544 17.3949 28.7414C17.3957 27.5579 17.1445 26.3873 16.6574 25.3049C16.0328 22.7953 14.9631 18.9314 13.3352 14.3658C12.3385 11.5592 12.5512 9.04634 13.9598 7.09478C15.4381 5.04859 18.1922 3.77582 21.1523 3.77582C24.4745 3.77582 26.9927 4.60803 28.6604 6.24955C30.3281 7.89108 31.162 10.4007 31.152 13.7196C31.152 16.4936 28.966 21.1538 26.8564 25.6607C23.4612 32.9154 20.2553 39.7654 23.7037 43.1953C24.248 43.7619 24.9039 44.2141 25.6314 44.5243C26.3589 44.8345 27.143 44.9964 27.9361 45H28.0126C31.3912 44.9543 34.1785 42.1379 34.4842 41.8148C34.6557 41.6349 34.7894 41.4235 34.8778 41.1927C34.9661 40.962 35.0073 40.7164 34.9989 40.47C34.9906 40.2236 34.933 39.9812 34.8292 39.7567C34.7255 39.5322 34.5778 39.33 34.3945 39.1616ZM8.68749 33.5224C7.39749 33.5198 6.16109 33.0152 5.24893 32.1192C4.33676 31.2231 3.82313 30.0086 3.8205 28.7414C3.82225 27.4736 4.33549 26.2582 5.24775 25.3615C6.16001 24.4647 7.39692 23.9597 8.68749 23.9571C9.58201 23.9607 10.4583 24.2063 11.2201 24.6668C11.9819 25.1273 12.5999 25.7851 13.0063 26.5679C13.2953 27.7362 13.4681 28.5456 13.5412 28.898C13.499 30.1361 12.9696 31.31 12.0644 32.1724C11.1591 33.0349 9.94858 33.5188 8.68749 33.5224Z" fill="#888888"/>
</svg>
