<svg width="51" height="41" viewBox="0 0 51 41" fill="none" xmlns="http://www.w3.org/2000/svg">
<path d="M2.04345 27.1938H19.697C20.0642 27.2003 20.4264 27.1078 20.7455 26.9258C21.0646 26.7438 21.3287 26.4792 21.5101 26.1598C21.517 26.1449 21.5253 26.1307 21.5349 26.1173V26.0996L21.5774 26.0075L21.6128 25.9331C21.6128 25.8942 21.6411 25.8552 21.6518 25.8163C21.6627 25.7921 21.6722 25.7672 21.6801 25.7419L21.712 25.6144C21.712 25.5896 21.712 25.5684 21.712 25.5471C21.712 25.5259 21.7297 25.4515 21.7367 25.4019C21.735 25.3843 21.735 25.3665 21.7367 25.3488C21.7367 25.2957 21.7367 25.239 21.7367 25.1859V25.1434C21.7367 25.0938 21.7367 25.0443 21.7367 24.9947C21.7386 24.9747 21.7386 24.9545 21.7367 24.9345C21.7387 24.905 21.7387 24.8754 21.7367 24.846C21.6907 24.5287 21.5705 24.2268 21.3859 23.9647C21.2013 23.7025 20.9575 23.4876 20.6743 23.3374C19.0237 22.4762 17.6412 21.1783 16.6777 19.5852C15.7141 17.9922 15.2064 16.1652 15.2101 14.3034C15.2129 11.6012 16.2876 9.01048 18.1983 7.09973C20.1091 5.18898 22.6998 4.11429 25.402 4.11148C28.1046 4.11429 30.6956 5.18887 32.607 7.09951C34.5183 9.01016 35.5938 11.6009 35.5975 14.3034C35.6004 16.1655 35.0921 17.9926 34.1279 19.5856C33.1637 21.1786 31.7807 22.4764 30.1297 23.3374C29.8465 23.4876 29.6028 23.7025 29.4182 23.9647C29.2336 24.2268 29.1134 24.5287 29.0673 24.846C29.0653 24.8754 29.0653 24.905 29.0673 24.9345C29.0654 24.9545 29.0654 24.9747 29.0673 24.9947C29.0673 25.0443 29.0673 25.0938 29.0673 25.1434V25.1895C29.0673 25.2426 29.0673 25.2957 29.0673 25.3488C29.069 25.3665 29.069 25.3843 29.0673 25.4019C29.0673 25.4515 29.0673 25.4976 29.0921 25.5471C29.1169 25.5967 29.0921 25.5932 29.0921 25.6144L29.124 25.7419C29.1349 25.7673 29.1444 25.7933 29.1523 25.8198C29.1523 25.8588 29.1771 25.8942 29.1913 25.9296C29.2057 25.9572 29.2187 25.9856 29.2302 26.0146L29.2692 26.0996C29.305 26.1701 29.3464 26.2376 29.3931 26.3014C29.4108 26.3298 29.4321 26.3546 29.4533 26.3829L29.5454 26.4927L29.6197 26.5741C29.6692 26.624 29.7212 26.6713 29.7756 26.7158L29.8676 26.7866L29.9703 26.8574L30.0695 26.9141C30.1155 26.9424 30.1616 26.9637 30.2112 26.9884L30.3245 27.038L30.4909 27.0947L30.5936 27.1195L30.7211 27.1478L30.8415 27.1655H30.9548H31.0717H48.7783C49.3203 27.1655 49.84 26.9502 50.2232 26.567C50.6064 26.1838 50.8217 25.6641 50.8217 25.1222C50.8217 24.5802 50.6064 24.0605 50.2232 23.6773C49.84 23.2941 49.3203 23.0788 48.7783 23.0788H36.6634C38.6334 20.5674 39.7023 17.4669 39.6984 14.2751C39.6937 10.4899 38.1877 6.86117 35.5109 4.18499C32.834 1.5088 29.2049 0.0037485 25.4197 0C21.6346 0.0037485 18.0055 1.5088 15.3286 4.18499C12.6518 6.86117 11.1458 10.4899 11.1411 14.2751C11.1372 17.4669 12.2061 20.5674 14.176 23.0788H2.06113C1.5192 23.0788 0.999484 23.2941 0.616282 23.6773C0.233081 24.0605 0.0177755 24.5802 0.0177755 25.1222C0.0140325 25.3914 0.0635536 25.6587 0.163458 25.9088C0.263362 26.1588 0.411702 26.3866 0.599942 26.5791C0.788181 26.7716 1.01258 26.9251 1.26031 27.0306C1.50803 27.136 1.7742 27.1915 2.04345 27.1938Z" fill="#888888"/>
<path d="M48.7605 36.2349H2.04335C1.50142 36.2349 0.981665 36.4502 0.598464 36.8334C0.215262 37.2166 0 37.7363 0 38.2782C0 38.8201 0.215262 39.3399 0.598464 39.7231C0.981665 40.1063 1.50142 40.3216 2.04335 40.3216H48.7605C49.3024 40.3216 49.8222 40.1063 50.2054 39.7231C50.5886 39.3399 50.8039 38.8201 50.8039 38.2782C50.8039 37.7363 50.5886 37.2166 50.2054 36.8334C49.8222 36.4502 49.3024 36.2349 48.7605 36.2349Z" fill="#888888"/>
</svg>
