<svg width="37" height="46" viewBox="0 0 37 46" fill="none" xmlns="http://www.w3.org/2000/svg">
<path d="M37 23.0499C37 22.5278 36.7938 22.0271 36.4269 21.658C36.0599 21.2888 35.5623 21.0815 35.0433 21.0815H26.0357C27.2268 10.9382 35.4414 3.58835 35.5299 3.50961C35.7358 3.34335 35.9062 3.13695 36.0309 2.9028C36.1555 2.66865 36.2319 2.41158 36.2554 2.14702C36.2788 1.88245 36.2489 1.61583 36.1674 1.36319C36.0859 1.11054 35.9545 0.877066 35.7811 0.676769C35.6077 0.476473 35.3958 0.313474 35.1583 0.19758C34.9207 0.0816866 34.6623 0.0152891 34.3985 0.0023443C34.1348 -0.0106005 33.8712 0.0301599 33.6236 0.122236C33.3759 0.214311 33.1493 0.355795 32.9573 0.538157C32.5422 0.904452 23.2624 9.17176 22.0986 21.0781H15.1872C14.0234 9.16834 4.74367 0.901028 4.32851 0.538157C3.93505 0.207874 3.42867 0.0457271 2.91783 0.0864646C2.40698 0.127202 1.93231 0.367565 1.59549 0.756084C1.25868 1.1446 1.08649 1.6504 1.11584 2.16507C1.14518 2.67974 1.3737 3.16239 1.75247 3.50961C1.84095 3.58835 10.0556 10.9382 11.25 21.0815H2.04176C1.77771 21.0704 1.51416 21.1132 1.26696 21.2072C1.01976 21.3012 0.794004 21.4445 0.60328 21.6285C0.412556 21.8126 0.260775 22.0335 0.157103 22.2781C0.0534307 22.5226 0 22.7857 0 23.0516C0 23.3175 0.0534307 23.5806 0.157103 23.8251C0.260775 24.0697 0.412556 24.2906 0.60328 24.4746C0.794004 24.6587 1.01976 24.802 1.26696 24.896C1.51416 24.99 1.77771 25.0328 2.04176 25.0217H11.3385C10.8825 31.1529 7.64974 37.0684 1.70823 42.6347C1.34969 42.9958 1.14433 43.4827 1.13528 43.993C1.12623 44.5033 1.3142 44.9973 1.65972 45.371C2.00523 45.7448 2.48135 45.9692 2.98794 45.9971C3.49454 46.0249 3.99217 45.8541 4.37616 45.5205C11.182 39.16 14.8197 32.2723 15.2655 25.0217H22.0237C22.4661 32.2723 26.1072 39.16 32.9131 45.5205C33.2971 45.8541 33.7947 46.0249 34.3013 45.9971C34.8078 45.9692 35.284 45.7448 35.6295 45.371C35.975 44.9973 36.163 44.5033 36.154 43.993C36.1449 43.4827 35.9395 42.9958 35.581 42.6347C29.6361 37.0684 26.393 31.1529 25.9507 25.0217H35.0297C35.2881 25.0235 35.5443 24.9738 35.7835 24.8755C36.0227 24.7772 36.2401 24.6322 36.4233 24.4488C36.6065 24.2655 36.7518 24.0475 36.8507 23.8074C36.9497 23.5673 37.0005 23.3098 37 23.0499Z" fill="#888888"/>
</svg>
