<svg width="45" height="45" viewBox="0 0 45 45" fill="none" xmlns="http://www.w3.org/2000/svg">
<path d="M44.9677 2.27301C44.9677 2.17343 44.9596 2.07249 44.9435 1.97022V1.89348C44.9282 1.79531 44.9066 1.69822 44.8789 1.60281C44.8486 1.50376 44.8122 1.40669 44.7699 1.31213C44.7581 1.29458 44.7486 1.27558 44.7416 1.2556C44.698 1.16815 44.6495 1.08323 44.5963 1.00125C44.5401 0.918789 44.4781 0.840545 44.4106 0.767101L44.3621 0.710573C44.2948 0.637881 44.2234 0.569128 44.1482 0.504665C44.0674 0.440068 43.9826 0.38352 43.8979 0.326998L43.8413 0.294717C43.7485 0.242231 43.6556 0.19379 43.5587 0.149379C43.4626 0.111047 43.3641 0.0786904 43.264 0.0524872H43.1994C43.101 0.0287679 43.0013 0.0112365 42.9007 0H42.8562C42.7957 0 42.7351 0 42.6706 0H21.0352C20.4173 0 19.8248 0.245411 19.388 0.682284C18.9511 1.11916 18.7057 1.71171 18.7057 2.32954C18.7057 2.94737 18.9511 3.53988 19.388 3.97675C19.8248 4.41363 20.4173 4.65909 21.0352 4.65909H37.0507L16.9899 24.7165L8.64902 16.3754C8.43305 16.1592 8.1766 15.9877 7.89431 15.8707C7.61202 15.7537 7.30943 15.6934 7.00385 15.6934C6.69827 15.6934 6.39571 15.7537 6.11342 15.8707C5.83113 15.9877 5.57465 16.1592 5.35869 16.3754C4.92281 16.8127 4.67807 17.4051 4.67807 18.0226C4.67807 18.6401 4.92281 19.2324 5.35869 19.6698L13.6996 28.0109L0.683619 41.0273C0.466951 41.243 0.295002 41.4994 0.177687 41.7817C0.0603724 42.064 0 42.3667 0 42.6725C0 42.9782 0.0603724 43.2809 0.177687 43.5633C0.295002 43.8456 0.466951 44.102 0.683619 44.3177C0.898783 44.5344 1.15478 44.7063 1.43683 44.8234C1.71887 44.9406 2.02137 45.0006 2.32676 45C2.63284 45.0011 2.93607 44.9414 3.21885 44.8242C3.50162 44.7071 3.75828 44.5349 3.97393 44.3177L16.9899 31.3014L25.4115 39.7232C25.8471 40.1595 26.4381 40.4049 27.0546 40.4055C27.3606 40.4057 27.6636 40.3456 27.9462 40.2285C28.2289 40.1114 28.4856 39.9397 28.7018 39.7232C28.9186 39.5072 29.0906 39.2505 29.208 38.9678C29.3254 38.6851 29.3858 38.382 29.3858 38.076C29.3858 37.7699 29.3254 37.4668 29.208 37.1842C29.0906 36.9015 28.9186 36.6448 28.7018 36.4288L20.2842 28.0109L40.3411 7.94946V23.9696C40.3411 24.2753 40.4014 24.578 40.5185 24.8604C40.6356 25.1428 40.8072 25.3994 41.0236 25.6154C41.24 25.8314 41.4968 26.0026 41.7794 26.1192C42.062 26.2359 42.3648 26.2956 42.6706 26.2951C43.2877 26.2951 43.8796 26.0502 44.3163 25.6142C44.7531 25.1782 44.9989 24.5867 45 23.9696V2.32146L44.9677 2.27301Z" fill="#888888"/>
</svg>
