<svg width="42" height="45" viewBox="0 0 42 45" fill="none" xmlns="http://www.w3.org/2000/svg">
<path d="M42 40.9726L35.2565 37.2807L35.3032 39.1468C30.6495 38.4756 29.8717 35.9517 29.7348 34.0219V7.14202C29.7366 5.70955 29.3092 4.30972 28.5084 3.12489C27.7076 1.94007 26.5705 1.02513 25.2451 0.499252C23.9198 -0.0266289 22.4676 -0.139085 21.0778 0.176537C19.6879 0.492158 18.4248 1.22124 17.453 2.2688C16.7916 1.55403 15.9908 0.983946 15.1005 0.594137C14.2102 0.204328 13.2496 0.00315464 12.2785 0.00315464C11.3075 0.00315464 10.3468 0.204328 9.45656 0.594137C8.56628 0.983946 7.76546 1.55403 7.10405 2.2688C6.44241 1.5532 5.64116 0.982407 4.75028 0.592048C3.85941 0.201688 2.89805 0.000142605 1.92624 0C1.41537 8.65865e-08 0.925444 0.204009 0.564205 0.567179C0.202966 0.930349 0 1.42294 0 1.93654C0 2.45014 0.202966 2.94269 0.564205 3.30586C0.925444 3.66903 1.41537 3.87308 1.92624 3.87308C2.78892 3.87307 3.61631 4.21737 4.22663 4.83032C4.83694 5.44327 5.18027 6.27473 5.18115 7.14202V34.089C5.17034 34.3498 5.21213 34.6102 5.30398 34.8544C5.39582 35.0987 5.53583 35.3217 5.71561 35.5101C5.89538 35.6985 6.11122 35.8485 6.35011 35.9509C6.589 36.0533 6.84602 36.1061 7.10572 36.1061C7.36543 36.1061 7.62245 36.0533 7.86134 35.9509C8.10023 35.8485 8.31606 35.6985 8.49584 35.5101C8.67562 35.3217 8.81562 35.0987 8.90747 34.8544C8.99932 34.6102 9.04111 34.3498 9.0303 34.089V7.14202C9.0303 6.27504 9.37287 5.44357 9.98266 4.83053C10.5924 4.21748 11.4195 3.87308 12.2819 3.87308C13.1442 3.87308 13.9713 4.21748 14.5811 4.83053C15.1909 5.44357 15.5334 6.27504 15.5334 7.14202V34.089C15.5334 34.6026 15.7364 35.0952 16.0976 35.4583C16.4588 35.8215 16.9488 36.0255 17.4597 36.0255C17.9705 36.0255 18.4605 35.8215 18.8217 35.4583C19.1829 35.0952 19.3859 34.6026 19.3859 34.089V7.14202C19.3859 6.27504 19.7285 5.44357 20.3383 4.83053C20.9481 4.21748 21.7751 3.87308 22.6375 3.87308C23.4998 3.87308 24.3269 4.21748 24.9367 4.83053C25.5465 5.44357 25.889 6.27504 25.889 7.14202V34.089C25.889 34.1326 25.889 34.1729 25.889 34.2165C26.0827 37.1935 27.5983 42.1875 35.4 43.0601L35.4501 45L42 40.9726Z" fill="#888888"/>
</svg>
