<svg width="41" height="63" viewBox="0 0 41 63" fill="none" xmlns="http://www.w3.org/2000/svg">
<path d="M23.3701 25.8973C18.9027 24.9229 15.0466 24.0814 15.0466 21.8542C15.0466 18.969 18.7137 18.3616 21.7885 18.3616C25.7392 18.3616 29.9041 19.5258 34.1698 21.8289L34.7936 22.1642L39.2673 11.3384L38.7884 11.0536C35.3166 8.99729 30.7358 7.61796 25.8337 7.14342V0H16.7037V7.3016C6.9688 8.69358 0.945136 14.483 0.945136 22.5059C0.945136 33.3444 11.0833 35.6222 18.4869 37.2799C23.0361 38.2986 26.9616 39.1781 26.9616 41.5444C26.9616 44.1006 23.2566 44.6384 20.1503 44.6384C15.16 44.6384 9.50807 42.9428 5.39988 40.2157L4.76979 39.7981L0 50.567L0.441063 50.8707C4.26571 53.5155 10.3083 55.3947 16.7037 55.9262V63H25.8337V55.6225C35.2095 54.0533 41 48.3209 41 40.5637C41 29.7379 30.8114 27.517 23.3701 25.8973ZM25.0965 54.433L24.5483 54.5152V61.7156H17.9891V54.7303L17.3905 54.6861C11.2408 54.2558 5.39358 52.5538 1.61303 50.1052L5.33687 41.7026C9.57738 44.3221 15.1852 45.9292 20.1566 45.9292C26.8482 45.9292 28.2533 43.5438 28.2533 41.5444C28.2533 38.1467 23.8615 37.1597 18.7704 36.0208C11.4046 34.3694 2.23052 32.313 2.23052 22.5059C2.23052 14.9196 7.90764 9.68695 17.422 8.50377L17.9828 8.43417V1.29075H24.542V8.33293L25.1343 8.38355C29.8411 8.76951 34.258 10.0096 37.6479 11.8888L34.1509 20.361C29.9167 18.1781 25.7581 17.0708 21.7885 17.0708C14.8008 17.0708 13.7612 20.0636 13.7612 21.8542C13.7612 25.1253 18.0836 26.0681 23.0928 27.1627C30.4964 28.7761 39.7146 30.7819 39.7146 40.5701C39.7146 47.8906 34.2517 53.0789 25.0965 54.433Z" fill="url(#paint0_linear_12_186)"/>
<path d="M22.4186 29.0482C17.0817 27.884 11.5684 26.6818 11.5684 21.8478C11.5684 19.8295 12.5388 15.1283 21.5239 15.1283C25.2036 15.1283 29.0156 16.0015 32.8844 17.7288L34.9196 12.8063C32.0086 11.4839 28.4738 10.6107 24.7184 10.307L22.3556 10.1172V7.73817V3.22687H19.6525V7.86471V10.1488L17.3968 10.4272C8.93465 11.4775 3.88762 15.9888 3.88762 22.5059C3.88762 30.1681 10.1192 32.1612 18.9216 34.1353C24.3215 35.3438 29.9104 36.5966 29.9104 41.5508C29.9104 43.9108 28.6061 47.8716 19.8856 47.8716C15.2923 47.8716 10.1948 46.5872 5.97322 44.4296L3.81201 49.3079C7.29641 51.1238 12.23 52.4082 17.2581 52.7626L19.6525 52.9334V55.3377V59.7794H22.3556V55.072V52.8448L24.5483 52.5158C32.6702 51.3136 37.5219 46.8466 37.5219 40.5637C37.5156 32.9268 31.2588 30.978 22.4186 29.0482Z" fill="url(#paint1_linear_12_186)"/>
<defs>
<linearGradient id="paint0_linear_12_186" x1="20.5003" y1="-2.39649" x2="20.5003" y2="65.3995" gradientUnits="userSpaceOnUse">
<stop stop-color="#DA9413"/>
<stop offset="0.4721" stop-color="#FEF1B2"/>
<stop offset="1" stop-color="#753B03"/>
</linearGradient>
<linearGradient id="paint1_linear_12_186" x1="20.6637" y1="-2.3965" x2="20.6637" y2="65.3995" gradientUnits="userSpaceOnUse">
<stop stop-color="#DA9413"/>
<stop offset="0.4721" stop-color="#FEF1B2"/>
<stop offset="1" stop-color="#753B03"/>
</linearGradient>
</defs>
</svg>
