<svg width="39" height="48" viewBox="0 0 39 48" fill="none" xmlns="http://www.w3.org/2000/svg">
<path d="M38.5906 2.18079C38.5561 1.90293 38.4669 1.63463 38.3282 1.39139C38.1895 1.14816 38.004 0.93478 37.7824 0.763565C37.5608 0.59235 37.3076 0.466684 37.0373 0.393802C36.7669 0.320919 36.4848 0.30229 36.2073 0.338942C35.9236 0.375779 29.234 1.3372 26.4012 8.69722C26.1691 9.30871 25.9371 9.9497 25.705 10.6054C23.9663 15.4421 22.5702 18.6358 19.3101 18.7537C16.05 18.6358 14.6539 15.4384 12.9152 10.6054C12.6831 9.9497 12.4511 9.30871 12.2154 8.69722C9.38627 1.32983 2.693 0.375779 2.40936 0.338942C1.8482 0.26685 1.28136 0.420256 0.833176 0.765543C0.384993 1.11083 0.0920247 1.61981 0.0185998 2.18079C-0.0181873 2.45653 -0.000288794 2.73679 0.0712561 3.00562C0.142801 3.27444 0.266596 3.52655 0.435578 3.74753C0.604561 3.96851 0.815433 4.15404 1.05612 4.29352C1.29681 4.433 1.56262 4.5237 1.83837 4.56044C2.02255 4.58991 6.35091 5.29719 8.25169 10.2333C8.4764 10.8154 8.69371 11.4268 8.91842 12.0494C9.87986 14.7348 11.0513 17.9949 13.1584 20.2603C10.7759 21.4415 8.77036 23.264 7.36728 25.5229C5.9642 27.7817 5.2193 30.3873 5.21633 33.0464C5.22023 36.831 6.72534 40.4595 9.40145 43.1356C12.0776 45.8117 15.7061 47.3168 19.4906 47.3207C23.2752 47.3168 26.9037 45.8117 29.5798 43.1356C32.2559 40.4595 33.7611 36.831 33.765 33.0464C33.7592 30.3424 32.9863 27.6956 31.5361 25.4133C30.0859 23.1311 28.0179 21.3072 25.5724 20.1535C27.6095 17.8917 28.7551 14.7016 29.7018 12.0494C29.9265 11.4268 30.1439 10.8154 30.3686 10.2333C32.262 5.31192 36.5572 4.59359 36.7782 4.56044C37.3333 4.48354 37.8355 4.19014 38.1751 3.74429C38.5146 3.29845 38.664 2.73639 38.5906 2.18079ZM29.514 33.0464C29.512 35.7045 28.4555 38.2532 26.5763 40.1331C24.6971 42.013 22.1487 43.0705 19.4906 43.0734C16.8322 43.0705 14.2835 42.0132 12.4037 40.1334C10.5239 38.2536 9.46652 35.7049 9.4636 33.0464C9.4675 30.3886 10.5253 27.8409 12.405 25.9619C14.2847 24.0829 16.8329 23.026 19.4906 23.0231C22.1481 23.026 24.6959 24.083 26.575 25.9621C28.4541 27.8412 29.511 30.389 29.514 33.0464Z" fill="#888888"/>
</svg>
