<svg width="44" height="48" viewBox="0 0 44 48" fill="none" xmlns="http://www.w3.org/2000/svg">
<path d="M42.344 39.2461C41.8272 39.0229 41.2429 39.0139 40.7194 39.2211C40.1959 39.4283 39.776 39.8347 39.5518 40.3512C39.5518 40.3807 38.1999 43.2318 36.1186 43.1213C34.8219 43.055 33.4958 42.9813 33.0096 40.2922C35.6287 38.3988 38.2699 36.0118 40.1007 33.1901C43.1324 28.5191 45.8436 19.3099 42.042 14.3775C40.6348 12.5356 37.9273 10.7785 32.8143 11.7399V8.10781C32.8124 6.03038 31.9862 4.0386 30.5173 2.56963C29.0483 1.10067 27.0565 0.274537 24.9791 0.272586C23.9068 0.272743 22.846 0.493955 21.8629 0.922404C20.8799 1.35085 19.9958 1.97734 19.2657 2.76277C18.5352 1.97787 17.651 1.35171 16.668 0.923303C15.6851 0.494895 14.6245 0.273403 13.5523 0.272586C12.4799 0.272743 11.4192 0.493955 10.4362 0.922404C9.45313 1.35085 8.56895 1.97734 7.83887 2.76277C7.10851 1.97769 6.22431 1.35141 5.24135 0.922988C4.25839 0.494567 3.19777 0.273183 2.1255 0.272586C1.84655 0.272102 1.57022 0.326614 1.31236 0.433028C1.05451 0.539442 0.820166 0.695649 0.622748 0.892726C0.425329 1.0898 0.268697 1.3239 0.161836 1.58157C0.054975 1.83924 -4.20387e-07 2.11545 0 2.3944C0 2.95811 0.223916 3.49872 0.622523 3.89733C1.02113 4.29594 1.56178 4.5199 2.1255 4.5199C3.07677 4.52087 3.9888 4.8992 4.66146 5.57185C5.33411 6.24451 5.71244 7.15654 5.71341 8.10781V37.6878C5.71341 37.9668 5.76839 38.243 5.87525 38.5007C5.98211 38.7584 6.13874 38.9924 6.33616 39.1895C6.53358 39.3866 6.76792 39.5428 7.02577 39.6492C7.28363 39.7556 7.55992 39.8101 7.83887 39.8097C8.40161 39.8097 8.94132 39.5861 9.33924 39.1882C9.73715 38.7903 9.96068 38.2506 9.96068 37.6878V8.10781C9.96263 7.1562 10.3418 6.24418 11.015 5.57163C11.6883 4.89908 12.6007 4.52087 13.5523 4.5199C14.5036 4.52087 15.4156 4.8992 16.0883 5.57185C16.7609 6.24451 17.1392 7.15654 17.1402 8.10781V37.6878C17.1402 37.9668 17.1952 38.243 17.3021 38.5007C17.4089 38.7584 17.5656 38.9924 17.763 39.1895C17.9604 39.3866 18.1947 39.5428 18.4526 39.6492C18.7105 39.7556 18.9867 39.8101 19.2657 39.8097C19.8284 39.8097 20.3681 39.5861 20.7661 39.1882C21.164 38.7903 21.3875 38.2506 21.3875 37.6878V8.10781C21.3885 7.1559 21.7673 6.24331 22.4408 5.57055C23.1142 4.89779 24.0272 4.5199 24.9791 4.5199C25.9304 4.52087 26.8424 4.8992 27.5151 5.57185C28.1877 6.24451 28.566 7.15654 28.567 8.10781V37.6878C28.567 37.8426 28.567 38.001 28.567 38.1631C26.5922 39.4156 24.5231 40.513 22.3784 41.4452C22.12 41.5501 21.8847 41.7048 21.6861 41.9006C21.4875 42.0964 21.3295 42.3294 21.221 42.5864C21.1126 42.8433 21.0559 43.1191 21.0541 43.398C21.0523 43.6769 21.1055 43.9534 21.2107 44.2117C21.3692 44.6035 21.6411 44.9391 21.9916 45.1753C22.3421 45.4116 22.7551 45.5378 23.1778 45.5378C23.452 45.5376 23.7236 45.4838 23.9772 45.3794C25.7912 44.6093 27.5532 43.7221 29.2522 42.7235C30.1031 45.1547 31.9523 47.1439 35.8828 47.3649H36.2512C40.1043 47.3649 42.5798 44.0496 43.4528 42.0236C43.6702 41.5078 43.6757 40.9272 43.4682 40.4074C43.2607 39.8876 42.8568 39.4704 42.344 39.2461ZM32.8143 16.0867C35.0503 15.5378 37.4853 15.4273 38.6788 16.9744C40.7822 19.7041 39.2534 26.692 36.5385 30.8804C35.4951 32.4309 34.2417 33.8292 32.8143 35.0356V16.0867Z" fill="#888888"/>
</svg>
