<svg width="118" height="136" viewBox="0 0 118 136" fill="none" xmlns="http://www.w3.org/2000/svg">
<g clip-path="url(#clip0_124_3463)">
<path d="M85.1519 0.365967H0.357422V135.982H108.552V23.6202L85.1519 0.365967ZM105.091 23.632L85.1163 23.6555L85.1519 3.82761L105.091 23.632ZM106.182 133.627H2.7283V2.72082H82.781L82.7336 26.0104L106.182 25.9868V133.627Z" fill="white"/>
<path d="M118 123.419H67.0146V114.282H69.3855V121.064H115.629V114.282H118V123.419Z" fill="white"/>
<path d="M105.115 100.047L93.6516 111.445V58.6015H91.2807V111.445L79.8531 100.106L78.1816 101.766L92.4662 115.954L106.786 101.719L105.115 100.047Z" fill="white"/>
<path d="M72.5036 97.2213H10.3984V54.6337H72.4917V97.2213H72.5036ZM12.7693 94.8664H70.1209V56.9886H12.7693V94.8664Z" fill="white"/>
</g>
<defs>
<clipPath id="clip0_124_3463">
<rect width="117.643" height="135.616" fill="white" transform="translate(0.357422 0.365967)"/>
</clipPath>
</defs>
</svg>
