<svg width="117" height="136" viewBox="0 0 117 136" fill="none" xmlns="http://www.w3.org/2000/svg">
<g clip-path="url(#clip0_124_3445)">
<path d="M81.805 57.7185H24.0576V49.5471H81.805V57.7185ZM26.3956 55.3636H79.467V51.902H26.3956V55.3636Z" fill="white"/>
<path d="M81.805 70.317H24.0576V62.1456H81.805V70.317ZM26.3956 67.9621H79.467V64.5005H26.3956V67.9621Z" fill="white"/>
<path d="M81.805 82.9154H24.0576V74.744H81.805V82.9154ZM26.3956 80.5606H79.467V77.0989H26.3956V80.5606Z" fill="white"/>
<path d="M60.0036 95.5258H24.0576V87.3544H59.9919V95.5258H60.0036ZM26.3956 93.1709H57.654V89.7093H26.3956V93.1709Z" fill="white"/>
<path d="M83.6167 0.365967H0V135.982H106.692V23.6202L83.6167 0.365967ZM103.279 23.632L83.5817 23.6555L83.6167 3.82761L103.279 23.632ZM104.354 133.627H2.33795V2.72082H81.2788L81.232 26.0104L104.354 25.9868V133.627Z" fill="white"/>
<path d="M116.009 123.419H65.7314V114.282H68.0694V121.064H113.671V114.282H116.009V123.419Z" fill="white"/>
<path d="M103.302 100.047L91.9983 111.445V58.6015H89.6603V111.445L78.3914 100.106L76.7432 101.766L90.8293 115.954L104.951 101.719L103.302 100.047Z" fill="white"/>
</g>
<defs>
<clipPath id="clip0_124_3445">
<rect width="116.009" height="135.616" fill="white" transform="translate(0 0.365967)"/>
</clipPath>
</defs>
</svg>
